<mxfile host="65bd71144e">
    <diagram id="dD8qFBslhcUz_3vVJVan" name="Page-1">
        <mxGraphModel dx="1102" dy="548" grid="1" gridSize="10" guides="1" tooltips="1" connect="1" arrows="1" fold="1" page="1" pageScale="1" pageWidth="850" pageHeight="1100" math="0" shadow="0">
            <root>
                <mxCell id="0"/>
                <mxCell id="1" parent="0"/>
                <mxCell id="14" value="" style="rounded=0;whiteSpace=wrap;html=1;fillColor=#eeeeee;strokeColor=#36393d;" vertex="1" parent="1">
                    <mxGeometry x="75.71" y="150" width="274.29" height="260" as="geometry"/>
                </mxCell>
                <mxCell id="19" value="" style="rounded=0;whiteSpace=wrap;html=1;fillColor=#eeeeee;strokeColor=#36393d;" vertex="1" parent="1">
                    <mxGeometry x="60" y="130" width="670" height="300" as="geometry"/>
                </mxCell>
                <mxCell id="16" value="응답" style="edgeStyle=none;html=1;fillColor=#eeeeee;strokeColor=#36393d;" edge="1" parent="1">
                    <mxGeometry relative="1" as="geometry">
                        <mxPoint x="400" y="290" as="sourcePoint"/>
                        <mxPoint x="339.9999999999999" y="290" as="targetPoint"/>
                    </mxGeometry>
                </mxCell>
                <mxCell id="2" value="internet" style="ellipse;shape=cloud;whiteSpace=wrap;html=1;" vertex="1" parent="1">
                    <mxGeometry x="400" y="242.5" width="121.88" height="65" as="geometry"/>
                </mxCell>
                <mxCell id="15" value="요청" style="edgeStyle=none;html=1;fillColor=#eeeeee;strokeColor=#36393d;" edge="1" parent="1">
                    <mxGeometry relative="1" as="geometry">
                        <mxPoint x="340" y="268" as="sourcePoint"/>
                        <mxPoint x="400.0000000000001" y="268" as="targetPoint"/>
                    </mxGeometry>
                </mxCell>
                <mxCell id="3" value="proxy" style="fontColor=#0066CC;verticalAlign=top;verticalLabelPosition=bottom;labelPosition=center;align=center;html=1;outlineConnect=0;fillColor=#CCCCCC;strokeColor=#6881B3;gradientColor=none;gradientDirection=north;strokeWidth=2;shape=mxgraph.networks.proxy_server;" vertex="1" parent="1">
                    <mxGeometry x="260" y="235" width="80" height="80" as="geometry"/>
                </mxCell>
                <mxCell id="8" value="" style="edgeStyle=none;html=1;entryX=0;entryY=0.5;entryDx=0;entryDy=0;entryPerimeter=0;fillColor=#eeeeee;strokeColor=#36393d;" edge="1" parent="1" source="4" target="3">
                    <mxGeometry relative="1" as="geometry">
                        <mxPoint x="287.145" y="195" as="targetPoint"/>
                    </mxGeometry>
                </mxCell>
                <mxCell id="4" value="pc1" style="fontColor=#0066CC;verticalAlign=top;verticalLabelPosition=bottom;labelPosition=center;align=center;html=1;outlineConnect=0;fillColor=#CCCCCC;strokeColor=#6881B3;gradientColor=none;gradientDirection=north;strokeWidth=2;shape=mxgraph.networks.pc;" vertex="1" parent="1">
                    <mxGeometry x="100" y="170" width="71.43" height="50" as="geometry"/>
                </mxCell>
                <mxCell id="9" value="" style="edgeStyle=none;html=1;fillColor=#eeeeee;strokeColor=#36393d;" edge="1" parent="1" source="5" target="3">
                    <mxGeometry relative="1" as="geometry"/>
                </mxCell>
                <mxCell id="5" value="pc2" style="fontColor=#0066CC;verticalAlign=top;verticalLabelPosition=bottom;labelPosition=center;align=center;html=1;outlineConnect=0;fillColor=#CCCCCC;strokeColor=#6881B3;gradientColor=none;gradientDirection=north;strokeWidth=2;shape=mxgraph.networks.pc;" vertex="1" parent="1">
                    <mxGeometry x="100" y="250" width="71.43" height="50" as="geometry"/>
                </mxCell>
                <mxCell id="10" value="" style="edgeStyle=none;html=1;entryX=0;entryY=0.5;entryDx=0;entryDy=0;entryPerimeter=0;fillColor=#eeeeee;strokeColor=#36393d;" edge="1" parent="1" source="6" target="3">
                    <mxGeometry relative="1" as="geometry"/>
                </mxCell>
                <mxCell id="6" value="pc3" style="fontColor=#0066CC;verticalAlign=top;verticalLabelPosition=bottom;labelPosition=center;align=center;html=1;outlineConnect=0;fillColor=#CCCCCC;strokeColor=#6881B3;gradientColor=none;gradientDirection=north;strokeWidth=2;shape=mxgraph.networks.pc;" vertex="1" parent="1">
                    <mxGeometry x="100" y="326" width="71.43" height="50" as="geometry"/>
                </mxCell>
                <mxCell id="13" value="https://microsoft.com/" style="fontColor=#0066CC;verticalAlign=top;verticalLabelPosition=bottom;labelPosition=center;align=center;html=1;outlineConnect=0;fillColor=#CCCCCC;strokeColor=#6881B3;gradientColor=none;gradientDirection=north;strokeWidth=2;shape=mxgraph.networks.server;" vertex="1" parent="1">
                    <mxGeometry x="600" y="232.5" width="67.5" height="75" as="geometry"/>
                </mxCell>
                <mxCell id="17" value="응답" style="edgeStyle=none;html=1;fillColor=#eeeeee;strokeColor=#36393d;" edge="1" parent="1">
                    <mxGeometry relative="1" as="geometry">
                        <mxPoint x="590" y="290.83" as="sourcePoint"/>
                        <mxPoint x="529.9999999999999" y="290.83" as="targetPoint"/>
                    </mxGeometry>
                </mxCell>
                <mxCell id="18" value="요청" style="edgeStyle=none;html=1;fillColor=#eeeeee;strokeColor=#36393d;" edge="1" parent="1">
                    <mxGeometry relative="1" as="geometry">
                        <mxPoint x="530" y="268.83" as="sourcePoint"/>
                        <mxPoint x="590.0000000000001" y="268.83" as="targetPoint"/>
                    </mxGeometry>
                </mxCell>
            </root>
        </mxGraphModel>
    </diagram>
</mxfile>